<?xml version="1.0" encoding="utf-8"?>
<svg version="1.1" xmlns="http://www.w3.org/2000/svg" xmlns:xlink="http://www.w3.org/1999/xlink" x="0px" y="0px" viewBox="0 0 1000 1000" enable-background="new 0 0 1000 1000" xml:space="preserve">
<metadata> Svg Vector Icons : http://www.onlinewebfonts.com/icon </metadata>
<g><path d="M471.9,477.5"/><path d="M471.9,477.5"/><path d="M477.3,698.3c0-49.9,15.1-96.3,41-135.2H183.6c-17.8,0-32.2-14-32.2-31.4c0-17.3,14.4-31.3,32.2-31.3h394.4c42.9-31.9,96.4-50.8,154.4-50.8c21.5,0,42.2,2.6,62.1,7.5V84.1c0-40.9-34-74.2-76-74.2H86c-42,0-76,33.2-76,74.2v780c0,40.9,34,74.1,76,74.1h578.7C556.8,909.3,477.3,812.9,477.3,698.3z M183.6,204H621c17.8,0,32.1,14,32.1,31.4c0,17.3-14.4,31.3-32.1,31.3H183.6c-17.8,0-32.2-14-32.2-31.3C151.4,218,165.8,204,183.6,204z M183.6,352.2H621c17.8,0,32.1,14,32.1,31.3c0,17.3-14.4,31.4-32.1,31.4H183.6c-17.8,0-32.2-14-32.2-31.4C151.4,366.2,165.8,352.2,183.6,352.2z M982.4,938.2l-81.8-98c-3-3.4-6.5-6.1-10.4-8c31.8-35.9,51-82.7,51-133.9c0-113.1-94-204.8-210.1-204.8c-115.9,0-210,91.7-210,204.8c0,113.2,94.1,204.9,210,204.9c42,0,81.1-12,113.9-32.7c1.3,3.6,3.2,7.1,5.9,10.2l81.9,98c11.5,13.4,31.9,15.1,45.5,3.9C992.1,971.5,993.9,951.6,982.4,938.2z M731.2,859.3c-91.1,0-165-72.1-165-161c0-88.9,73.9-160.9,165-160.9c91.2,0,165,72.1,165,160.9C896.2,787.2,822.4,859.3,731.2,859.3z"/></g>
</svg>
