<?xml version="1.0" encoding="utf-8"?>
<!-- Svg Vector Icons : http://www.onlinewebfonts.com/icon -->
<!DOCTYPE svg PUBLIC "-//W3C//DTD SVG 1.1//EN" "http://www.w3.org/Graphics/SVG/1.1/DTD/svg11.dtd">
<svg version="1.1" xmlns="http://www.w3.org/2000/svg" xmlns:xlink="http://www.w3.org/1999/xlink" x="0px" y="0px" viewBox="0 0 1000 1000" enable-background="new 0 0 1000 1000" xml:space="preserve">
<metadata> Svg Vector Icons : http://www.onlinewebfonts.com/icon </metadata>
<g><path d="M884.6,562.5L990,494.8l-46.7-209.9l-123.7-14.1l-31.5-40.5l14.2-126.8L613.1,10l-87.8,90.4h-50.5L386.9,10l-189.2,93.4l14.2,126.8l-31.5,40.5L56.7,284.8L10,494.8l105.4,67.7l11.2,50.5L60.3,720.9l131,168.4L308.6,847l45.5,22.5L395,990h210l40.9-120.5l45.5-22.5l117.4,42.3l131-168.4L873.3,613L884.6,562.5L884.6,562.5z M783.3,798.4l-96.4-34.8l-101.8,50.3l-33.6,99h-103l-33.6-99l-101.8-50.3l-96.4,34.8l-64.3-82.7l54.6-88.7l-25.2-112.9l-86.6-55.7l22.9-103l101.6-11.6l70.4-90.6l-11.7-104.1l92.9-45.8l72.2,74.2h112.9l72.2-74.2l92.9,45.8l-11.7,104.1l70.4,90.6l101.6,11.6l22.9,103.1l-86.6,55.6L793,627.1l54.5,88.7L783.3,798.4L783.3,798.4z"/><path d="M500,313.2c-103.8,0-188,86.3-188,192.8c0,106.5,84.1,192.8,188,192.8c103.9,0,188-86.3,188-192.8C688,399.5,603.9,313.2,500,313.2L500,313.2z M500,641c-72.5,0-131.6-60.5-131.6-135c0-74.4,59-135,131.6-135c72.6,0,131.6,60.6,131.6,135C631.6,580.5,572.6,641,500,641L500,641z"/></g>
</svg>